<svg xmlns="http://www.w3.org/2000/svg" version="1.1" xmlns:xlink="http://www.w3.org/1999/xlink" xmlns:svgjs="http://svgjs.dev/svgjs" width="1440" height="560" preserveAspectRatio="none" viewBox="0 0 1440 560"><g mask="url(&quot;#SvgjsMask1005&quot;)" fill="none"><rect width="1440" height="560" x="0" y="0" fill="url(&quot;#SvgjsLinearGradient1006&quot;)"></rect><path d="M1512 560L0 560 L0 371.06Q52.07 303.13, 120 355.21Q126.3 289.5, 192 295.8Q262.82 246.62, 312 317.44Q355.71 241.15, 432 284.86Q491.89 272.75, 504 332.64Q578.78 287.42, 624 362.21Q691.74 309.94, 744 377.68Q817.91 331.59, 864 405.5Q903.56 325.06, 984 364.61Q980.12 288.73, 1056 284.85Q1138.12 294.97, 1128 377.09Q1194.5 323.59, 1248 390.09Q1288.71 310.8, 1368 351.52Q1390.63 302.14, 1440 324.77Q1453.93 266.7, 1512 280.63z" fill="#182f5d"></path><path d="M1464 560L0 560 L0 431.48Q67.4 426.88, 72 494.29Q102.31 452.6, 144 482.91Q192.47 411.38, 264 459.86Q288.34 412.2, 336 436.54Q423.19 403.73, 456 490.92Q498 460.93, 528 502.93Q532.37 435.3, 600 439.67Q604.38 372.06, 672 376.44Q763.94 348.38, 792 440.32Q833.29 409.61, 864 450.9Q880.83 395.73, 936 412.55Q1004.15 360.7, 1056 428.85Q1077.85 378.7, 1128 400.55Q1171.96 372.51, 1200 416.48Q1244.12 388.6, 1272 432.72Q1330.03 418.75, 1344 476.77Q1376.63 389.39, 1464 422.02z" fill="#25467d"></path><path d="M1512 560L0 560 L0 506.8Q99.93 486.73, 120 586.65Q135.36 530, 192 545.36Q213.56 494.92, 264 516.49Q353.7 486.19, 384 575.9Q450.52 522.42, 504 588.94Q522.35 487.29, 624 505.64Q645.68 455.32, 696 477.01Q763.31 424.32, 816 491.63Q922.31 477.94, 936 584.26Q967.61 495.87, 1056 527.48Q1104.15 455.63, 1176 503.78Q1263.33 471.11, 1296 558.43Q1346.76 537.19, 1368 587.96Q1368.29 516.25, 1440 516.54Q1452.11 456.65, 1512 468.76z" fill="#356cb1"></path></g><defs><mask id="SvgjsMask1005"><rect width="1440" height="560" fill="#ffffff"></rect></mask><linearGradient x1="15.28%" y1="-39.29%" x2="84.72%" y2="139.29%" gradientUnits="userSpaceOnUse" id="SvgjsLinearGradient1006"><stop stop-color="#0e2a47" offset="0"></stop><stop stop-color="#00459e" offset="1"></stop></linearGradient></defs></svg>